<svg xmlns="http://www.w3.org/2000/svg" xmlns:xlink="http://www.w3.org/1999/xlink" aria-hidden="true" role="img" class="iconify iconify--logos" width="35.93" height="32" preserveAspectRatio="xMidYMid meet" viewBox="0 0 256 228"><path fill="#00D8FF" d="M210.483 73.824a171.49 171.49 0 0 0-8.24-2.597c.465-1.9.893-3.777 1.273-5.621c6.238-30.281 2.16-54.676-11.769-62.708c-13.355-7.7-35.196.329-57.254 19.526a171.23 171.23 0 0 0-6.375 5.848a155.866 155.866 0 0 0-4.241-3.917C100.759 3.829 77.587-4.822 63.673 3.233C50.33 10.957 46.379 33.89 51.995 62.588a170.974 170.974 0 0 0 1.892 8.48c-3.28.932-6.445 1.924-9.474 2.98C17.309 83.498 0 98.307 0 113.668c0 15.865 18.582 31.778 46.812 41.427a145.52 145.52 0 0 0 6.921 2.165a167.467 167.467 0 0 0-2.01 9.138c-5.354 28.2-1.173 50.591 12.134 58.266c13.744 7.926 36.812-.22 59.273-19.855a145.567 145.567 0 0 0 5.342-4.923a168.064 168.064 0 0 0 6.92 6.314c21.758 18.722 43.246 26.282 56.54 18.586c13.731-7.949 18.194-32.003 12.4-61.268a145.016 145.016 0 0 0-1.535-6.842c1.62-.48 3.21-.985 4.769-1.514c29.031-9.867 48.438-25.944 48.438-41.61c0-15.179-18.495-30.554-46.179-40.134Zm-6.363 66.019a136.075 136.075 0 0 1-4.107 1.289a231.617 231.617 0 0 0-5.56-16.24a232.82 232.82 0 0 0 5.226-15.666a150.88 150.88 0 0 1 4.44 1.265c19.17 6.098 29.728 14.85 29.728 21.77c0 7.43-11.324 16.691-29.728 22.583Zm-17.22 39.148c3.066 14.441 2.006 26.108-4.34 29.794c-6.657 3.866-18.925-.4-32.86-12.266a152.95 152.95 0 0 1-6.03-5.491a229.27 229.27 0 0 0 10.748-12.656a228.316 228.316 0 0 0 16.504-3.166c.65 1.227 1.306 2.449 1.978 3.785Zm-65.13 35.527c-9.814 9.074-18.856 14.98-25.62 14.98c-.57 0-1.127-.046-1.671-.141c-7.176-1.252-12.44-9.62-15.515-23.054a151.698 151.698 0 0 1-1.74-7.863a225.08 225.08 0 0 0 16.25-3.477c3.405 4.427 6.94 8.64 10.595 12.61c1.896 1.853 3.825 3.609 5.795 5.258a152.57 152.57 0 0 1 11.905-2.313Zm-46.87-45.236c-18.917-6.2-29.564-14.936-29.564-22.163c0-6.886 9.753-15.277 27.65-21.277a140.94 140.94 0 0 1 8.151-2.598c2.056 6.66 4.548 13.46 7.463 20.32a231.69 231.69 0 0 0-7.229 19.754a152.35 152.35 0 0 1-6.47-1.963v7.927Zm10.3-52.858a150.71 150.71 0 0 1-2.05-5.617c6.47-1.626 13.264-3 20.234-4.11c3.295 4.38 6.732 8.558 10.295 12.513a228.068 228.068 0 0 0 10.635 12.55a232.823 232.823 0 0 0-10.798 12.645a224.73 224.73 0 0 0-10.174 12.558a229.39 229.39 0 0 0-10.556-13.08a228.36 228.36 0 0 0-7.586-11.892c-.07-.098-.136-.198-.209-.297Zm14.093-8.11c-6.66-1.06-13.044-2.307-19.119-3.73a168.76 168.76 0 0 1 6.953-17.883c2.475 4.41 5.08 8.792 7.814 13.13a226.4 226.4 0 0 0 4.352 8.483Zm38.233 34.31c8.25 6.9 15.773 14.452 22.463 22.545a227.266 227.266 0 0 0-22.79 22.546a226.79 226.79 0 0 0-22.546-22.623c6.6-6.83 14.074-14.335 22.873-22.468Zm-5.833-41.978a227.333 227.333 0 0 0-9.053 8.21c-2.768-4.338-5.403-8.716-7.9-13.136a230.428 230.428 0 0 0 9.053-3.93a228.536 228.536 0 0 0 7.9 8.855ZM70.86 91.51a152.68 152.68 0 0 1 6.91-2.178a229.41 229.41 0 0 0 7.564 17.925c-2.535 4.443-4.94 8.926-7.212 13.438a148.098 148.098 0 0 1-7.262-29.185Zm56.463-75.752c7.225-6.684 13.808-11.788 19.357-14.814c4.92-2.689 8.965-3.872 12.122-3.872a6.86 6.86 0 0 1 3.574 1.022c6.625 3.835 9.7 14.55 7.717 29.8a151.95 151.95 0 0 1-1.108 5.001a226.09 226.09 0 0 0-16.232-3.5a225.69 225.69 0 0 0-10.695-12.553c-2.875-2.94-5.804-5.755-8.785-8.436a151.66 151.66 0 0 1-6.016 7.352Zm36.046-9.35c5.943-.795 10.665-.518 14.237 1.517c6.637 3.873 9.723 14.527 7.658 29.968a153.296 153.296 0 0 1-1.105 5.085a230.29 230.29 0 0 0-16.282-3.474c-3.401-4.4-6.942-8.588-10.608-12.55l.1-.116a227.268 227.268 0 0 0 6-20.43Zm-29.56 46.68c8.256 6.898 15.779 14.45 22.468 22.544a225.16 225.16 0 0 0-22.765 22.568a225.17 225.17 0 0 0-22.566-22.645c6.6-6.83 14.074-14.334 22.863-22.467Zm21.37 58.72a225.17 225.17 0 0 0-10.173-12.559a229.11 229.11 0 0 0 10.746-12.654a231.51 231.51 0 0 0 16.507-3.168c2.056 6.66 3.856 13.46 5.315 20.32a231.51 231.51 0 0 0-7.205 19.757c-5.117-.748-10.308-1.615-15.19-2.596v-9.1Zm-5.97-30.41a226.53 226.53 0 0 0-9.051 8.209c-2.768-4.339-5.403-8.718-7.9-13.137a228.57 228.57 0 0 0 9.051-3.93a228.546 228.546 0 0 0 7.9 8.858Z"></path><circle cx="128.001" cy="113.668" r="23.214" fill="#00D8FF"></circle></svg>
